<mxfile host="Electron" modified="2024-06-25T20:38:21.113Z" agent="Mozilla/5.0 (Windows NT 10.0; Win64; x64) AppleWebKit/537.36 (KHTML, like Gecko) draw.io/22.1.2 Chrome/114.0.5735.289 Electron/25.9.4 Safari/537.36" etag="a4ZGLBnpmB5PQzUD1WLE" version="22.1.2" type="device" pages="2">
  <diagram id="C5RBs43oDa-KdzZeNtuy" name="Import/Export">
    <mxGraphModel dx="4271" dy="2420" grid="1" gridSize="10" guides="1" tooltips="1" connect="1" arrows="1" fold="1" page="0" pageScale="1" pageWidth="827" pageHeight="1169" math="0" shadow="0">
      <root>
        <mxCell id="WIyWlLk6GJQsqaUBKTNV-0" />
        <mxCell id="WIyWlLk6GJQsqaUBKTNV-1" parent="WIyWlLk6GJQsqaUBKTNV-0" />
        <mxCell id="sYtakxzf9ieG8_uxygxY-20" value="&lt;font style=&quot;font-size: 27px;&quot;&gt;Export&lt;/font&gt;" style="shape=module;align=left;spacingLeft=20;align=center;verticalAlign=top;whiteSpace=wrap;html=1;" vertex="1" parent="WIyWlLk6GJQsqaUBKTNV-1">
          <mxGeometry x="-720" y="-250" width="1140" height="700" as="geometry" />
        </mxCell>
        <mxCell id="sYtakxzf9ieG8_uxygxY-0" value="&lt;p style=&quot;margin:0px;margin-top:4px;text-align:center;&quot;&gt;&lt;i&gt;&amp;lt;&amp;lt;abstract class&amp;gt;&amp;gt;&lt;/i&gt;&lt;br&gt;&lt;b&gt;TourExporter&lt;/b&gt;&lt;/p&gt;&lt;hr size=&quot;1&quot;&gt;&lt;p style=&quot;margin:0px;margin-left:4px;&quot;&gt;+ ExportTours(tours, withTourLogs)&lt;/p&gt;&lt;p style=&quot;margin:0px;margin-left:4px;&quot;&gt;&lt;br&gt;+ &lt;i&gt;CanHandle&lt;/i&gt;(format)&lt;/p&gt;&lt;p style=&quot;margin:0px;margin-left:4px;&quot;&gt;&lt;br&gt;&lt;/p&gt;&lt;p style=&quot;margin:0px;margin-left:4px;&quot;&gt;&lt;i&gt;~ GetContentType()&lt;/i&gt;&lt;/p&gt;&lt;p style=&quot;margin:0px;margin-left:4px;&quot;&gt;&lt;i&gt;&lt;br&gt;&lt;/i&gt;&lt;/p&gt;&lt;p style=&quot;margin:0px;margin-left:4px;&quot;&gt;&lt;i&gt;~ WriteTours(tourExportModels)&lt;/i&gt;&lt;br&gt;&lt;/p&gt;&lt;p style=&quot;margin:0px;margin-left:4px;&quot;&gt;&lt;i&gt;&lt;br&gt;&lt;/i&gt;&lt;/p&gt;&lt;p style=&quot;margin:0px;margin-left:4px;&quot;&gt;&lt;i&gt;~ WriteTourLogs(tourExportModels)&lt;/i&gt;&lt;i&gt;&lt;br&gt;&lt;/i&gt;&lt;/p&gt;&lt;p style=&quot;margin:0px;margin-left:4px;&quot;&gt;&lt;i&gt;&lt;br&gt;&lt;/i&gt;&lt;/p&gt;&lt;p style=&quot;margin:0px;margin-left:4px;&quot;&gt;&lt;i&gt;~ Save()&lt;/i&gt;&lt;i&gt;&lt;br&gt;&lt;/i&gt;&lt;/p&gt;&lt;p style=&quot;margin:0px;margin-left:4px;&quot;&gt;&lt;br&gt;&lt;/p&gt;" style="verticalAlign=top;align=left;overflow=fill;fontSize=12;fontFamily=Helvetica;html=1;whiteSpace=wrap;" vertex="1" parent="WIyWlLk6GJQsqaUBKTNV-1">
          <mxGeometry x="-230" y="-100" width="210" height="210" as="geometry" />
        </mxCell>
        <mxCell id="sYtakxzf9ieG8_uxygxY-1" value="XlsxExporter" style="swimlane;fontStyle=0;childLayout=stackLayout;horizontal=1;startSize=26;fillColor=none;horizontalStack=0;resizeParent=1;resizeParentMax=0;resizeLast=0;collapsible=1;marginBottom=0;whiteSpace=wrap;html=1;" vertex="1" parent="WIyWlLk6GJQsqaUBKTNV-1">
          <mxGeometry x="-390" y="244" width="140" height="52" as="geometry" />
        </mxCell>
        <mxCell id="sYtakxzf9ieG8_uxygxY-2" value="- mapper: Mapper" style="text;strokeColor=none;fillColor=none;align=left;verticalAlign=top;spacingLeft=4;spacingRight=4;overflow=hidden;rotatable=0;points=[[0,0.5],[1,0.5]];portConstraint=eastwest;whiteSpace=wrap;html=1;" vertex="1" parent="sYtakxzf9ieG8_uxygxY-1">
          <mxGeometry y="26" width="140" height="26" as="geometry" />
        </mxCell>
        <mxCell id="sYtakxzf9ieG8_uxygxY-5" value="CsvExporter" style="swimlane;fontStyle=0;childLayout=stackLayout;horizontal=1;startSize=26;fillColor=none;horizontalStack=0;resizeParent=1;resizeParentMax=0;resizeLast=0;collapsible=1;marginBottom=0;whiteSpace=wrap;html=1;" vertex="1" parent="WIyWlLk6GJQsqaUBKTNV-1">
          <mxGeometry x="-60" y="244" width="210" height="52" as="geometry" />
        </mxCell>
        <mxCell id="sYtakxzf9ieG8_uxygxY-6" value="- streamWriter :&amp;nbsp;StreamWriter" style="text;strokeColor=none;fillColor=none;align=left;verticalAlign=top;spacingLeft=4;spacingRight=4;overflow=hidden;rotatable=0;points=[[0,0.5],[1,0.5]];portConstraint=eastwest;whiteSpace=wrap;html=1;" vertex="1" parent="sYtakxzf9ieG8_uxygxY-5">
          <mxGeometry y="26" width="210" height="26" as="geometry" />
        </mxCell>
        <mxCell id="sYtakxzf9ieG8_uxygxY-10" value="" style="endArrow=block;dashed=1;endFill=0;endSize=12;html=1;rounded=0;exitX=0.5;exitY=0;exitDx=0;exitDy=0;entryX=0.25;entryY=1;entryDx=0;entryDy=0;" edge="1" parent="WIyWlLk6GJQsqaUBKTNV-1" source="sYtakxzf9ieG8_uxygxY-1" target="sYtakxzf9ieG8_uxygxY-0">
          <mxGeometry width="160" relative="1" as="geometry">
            <mxPoint x="-150" y="224" as="sourcePoint" />
            <mxPoint x="10" y="224" as="targetPoint" />
          </mxGeometry>
        </mxCell>
        <mxCell id="sYtakxzf9ieG8_uxygxY-11" value="" style="endArrow=block;dashed=1;endFill=0;endSize=12;html=1;rounded=0;exitX=0.5;exitY=0;exitDx=0;exitDy=0;entryX=0.75;entryY=1;entryDx=0;entryDy=0;" edge="1" parent="WIyWlLk6GJQsqaUBKTNV-1" source="sYtakxzf9ieG8_uxygxY-5" target="sYtakxzf9ieG8_uxygxY-0">
          <mxGeometry width="160" relative="1" as="geometry">
            <mxPoint x="-310" y="254" as="sourcePoint" />
            <mxPoint x="-100" y="174" as="targetPoint" />
          </mxGeometry>
        </mxCell>
        <mxCell id="sYtakxzf9ieG8_uxygxY-12" value="&lt;p style=&quot;margin:0px;margin-top:4px;text-align:center;&quot;&gt;&lt;i&gt;&amp;lt;&amp;lt;Interface&amp;gt;&amp;gt;&lt;/i&gt;&lt;br&gt;&lt;b&gt;TourMapper&lt;/b&gt;&lt;/p&gt;&lt;hr size=&quot;1&quot;&gt;&lt;p style=&quot;margin:0px;margin-left:4px;&quot;&gt;+ MapTours(tourExportModels)&lt;/p&gt;&lt;p style=&quot;margin:0px;margin-left:4px;&quot;&gt;&lt;br&gt;+ MapTourLogs(tourLogExportModels)&lt;/p&gt;&lt;p style=&quot;margin:0px;margin-left:4px;&quot;&gt;&lt;br&gt;&lt;/p&gt;" style="verticalAlign=top;align=left;overflow=fill;fontSize=12;fontFamily=Helvetica;html=1;whiteSpace=wrap;" vertex="1" parent="WIyWlLk6GJQsqaUBKTNV-1">
          <mxGeometry x="-680" y="-70" width="230" height="100" as="geometry" />
        </mxCell>
        <mxCell id="sYtakxzf9ieG8_uxygxY-13" value="" style="endArrow=diamondThin;endFill=1;endSize=24;html=1;rounded=0;entryX=0;entryY=0.25;entryDx=0;entryDy=0;exitX=1;exitY=0.25;exitDx=0;exitDy=0;" edge="1" parent="WIyWlLk6GJQsqaUBKTNV-1" source="sYtakxzf9ieG8_uxygxY-12" target="sYtakxzf9ieG8_uxygxY-0">
          <mxGeometry width="160" relative="1" as="geometry">
            <mxPoint x="-480" y="-116" as="sourcePoint" />
            <mxPoint x="-320" y="-116" as="targetPoint" />
          </mxGeometry>
        </mxCell>
        <mxCell id="sYtakxzf9ieG8_uxygxY-14" value="DefaultTourMapper" style="swimlane;fontStyle=0;childLayout=stackLayout;horizontal=1;startSize=26;fillColor=none;horizontalStack=0;resizeParent=1;resizeParentMax=0;resizeLast=0;collapsible=1;marginBottom=0;whiteSpace=wrap;html=1;" vertex="1" parent="WIyWlLk6GJQsqaUBKTNV-1">
          <mxGeometry x="-635" y="120" width="140" height="20" as="geometry" />
        </mxCell>
        <mxCell id="sYtakxzf9ieG8_uxygxY-17" value="" style="endArrow=block;dashed=1;endFill=0;endSize=12;html=1;rounded=0;exitX=0.46;exitY=0.029;exitDx=0;exitDy=0;entryX=0.5;entryY=1;entryDx=0;entryDy=0;exitPerimeter=0;" edge="1" parent="WIyWlLk6GJQsqaUBKTNV-1" source="sYtakxzf9ieG8_uxygxY-14" target="sYtakxzf9ieG8_uxygxY-12">
          <mxGeometry width="160" relative="1" as="geometry">
            <mxPoint x="-490" y="174" as="sourcePoint" />
            <mxPoint x="-377" y="94" as="targetPoint" />
          </mxGeometry>
        </mxCell>
        <mxCell id="sYtakxzf9ieG8_uxygxY-22" value="&lt;font style=&quot;font-size: 27px;&quot;&gt;Import&lt;/font&gt;" style="shape=module;align=left;spacingLeft=20;align=center;verticalAlign=top;whiteSpace=wrap;html=1;" vertex="1" parent="WIyWlLk6GJQsqaUBKTNV-1">
          <mxGeometry x="790" y="-230" width="950" height="600" as="geometry" />
        </mxCell>
        <mxCell id="sYtakxzf9ieG8_uxygxY-23" value="&lt;p style=&quot;margin:0px;margin-top:4px;text-align:center;&quot;&gt;&lt;i&gt;&amp;lt;&amp;lt;abstract class&amp;gt;&amp;gt;&lt;/i&gt;&lt;br&gt;&lt;b&gt;TourImporter&lt;/b&gt;&lt;/p&gt;&lt;hr size=&quot;1&quot;&gt;&lt;p style=&quot;margin:0px;margin-left:4px;&quot;&gt;+ Import(stream)&lt;/p&gt;&lt;p style=&quot;margin:0px;margin-left:4px;&quot;&gt;&lt;br&gt;+ &lt;i&gt;CanHandle&lt;/i&gt;(format)&lt;/p&gt;&lt;p style=&quot;margin:0px;margin-left:4px;&quot;&gt;&lt;br&gt;&lt;/p&gt;&lt;p style=&quot;margin:0px;margin-left:4px;&quot;&gt;&lt;i&gt;~ GetContentType()&lt;/i&gt;&lt;/p&gt;&lt;p style=&quot;margin:0px;margin-left:4px;&quot;&gt;&lt;i&gt;&lt;br&gt;&lt;/i&gt;&lt;/p&gt;&lt;p style=&quot;margin:0px;margin-left:4px;&quot;&gt;&lt;i&gt;~ ReadTours(tourExportModels)&lt;/i&gt;&lt;br&gt;&lt;/p&gt;&lt;p style=&quot;margin:0px;margin-left:4px;&quot;&gt;&lt;i&gt;&lt;br&gt;&lt;/i&gt;&lt;/p&gt;&lt;p style=&quot;margin:0px;margin-left:4px;&quot;&gt;&lt;i&gt;~ ReadTourLogs(tourExportModels)&lt;/i&gt;&lt;/p&gt;&lt;p style=&quot;margin:0px;margin-left:4px;&quot;&gt;&lt;i&gt;&lt;br&gt;&lt;/i&gt;&lt;/p&gt;&lt;p style=&quot;margin: 0px 0px 0px 4px;&quot;&gt;&lt;i&gt;~ ValidTourHeader()&lt;/i&gt;&lt;br&gt;&lt;/p&gt;&lt;p style=&quot;margin: 0px 0px 0px 4px;&quot;&gt;&lt;i&gt;&lt;br&gt;&lt;/i&gt;&lt;/p&gt;&lt;p style=&quot;margin: 0px 0px 0px 4px;&quot;&gt;&lt;i&gt;~ ValidTourLogHeaders()&lt;/i&gt;&lt;/p&gt;&lt;p style=&quot;margin:0px;margin-left:4px;&quot;&gt;&lt;br&gt;&lt;/p&gt;" style="verticalAlign=top;align=left;overflow=fill;fontSize=12;fontFamily=Helvetica;html=1;whiteSpace=wrap;" vertex="1" parent="WIyWlLk6GJQsqaUBKTNV-1">
          <mxGeometry x="1040" y="-110" width="210" height="250" as="geometry" />
        </mxCell>
        <mxCell id="sYtakxzf9ieG8_uxygxY-24" value="XlsxImporter" style="swimlane;fontStyle=0;childLayout=stackLayout;horizontal=1;startSize=26;fillColor=none;horizontalStack=0;resizeParent=1;resizeParentMax=0;resizeLast=0;collapsible=1;marginBottom=0;whiteSpace=wrap;html=1;" vertex="1" parent="WIyWlLk6GJQsqaUBKTNV-1">
          <mxGeometry x="880" y="244" width="170" height="52" as="geometry" />
        </mxCell>
        <mxCell id="sYtakxzf9ieG8_uxygxY-25" value="- reader:&amp;nbsp;IExcelDataReader" style="text;strokeColor=none;fillColor=none;align=left;verticalAlign=top;spacingLeft=4;spacingRight=4;overflow=hidden;rotatable=0;points=[[0,0.5],[1,0.5]];portConstraint=eastwest;whiteSpace=wrap;html=1;" vertex="1" parent="sYtakxzf9ieG8_uxygxY-24">
          <mxGeometry y="26" width="170" height="26" as="geometry" />
        </mxCell>
        <mxCell id="sYtakxzf9ieG8_uxygxY-26" value="CsvExporter" style="swimlane;fontStyle=0;childLayout=stackLayout;horizontal=1;startSize=26;fillColor=none;horizontalStack=0;resizeParent=1;resizeParentMax=0;resizeLast=0;collapsible=1;marginBottom=0;whiteSpace=wrap;html=1;" vertex="1" parent="WIyWlLk6GJQsqaUBKTNV-1">
          <mxGeometry x="1210" y="244" width="210" height="52" as="geometry" />
        </mxCell>
        <mxCell id="sYtakxzf9ieG8_uxygxY-27" value="- streamReader :&amp;nbsp;StreamReader" style="text;strokeColor=none;fillColor=none;align=left;verticalAlign=top;spacingLeft=4;spacingRight=4;overflow=hidden;rotatable=0;points=[[0,0.5],[1,0.5]];portConstraint=eastwest;whiteSpace=wrap;html=1;" vertex="1" parent="sYtakxzf9ieG8_uxygxY-26">
          <mxGeometry y="26" width="210" height="26" as="geometry" />
        </mxCell>
        <mxCell id="sYtakxzf9ieG8_uxygxY-28" value="" style="endArrow=block;dashed=1;endFill=0;endSize=12;html=1;rounded=0;exitX=0.5;exitY=0;exitDx=0;exitDy=0;entryX=0.25;entryY=1;entryDx=0;entryDy=0;" edge="1" parent="WIyWlLk6GJQsqaUBKTNV-1" source="sYtakxzf9ieG8_uxygxY-24" target="sYtakxzf9ieG8_uxygxY-23">
          <mxGeometry width="160" relative="1" as="geometry">
            <mxPoint x="1120" y="224" as="sourcePoint" />
            <mxPoint x="1280" y="224" as="targetPoint" />
          </mxGeometry>
        </mxCell>
        <mxCell id="sYtakxzf9ieG8_uxygxY-29" value="" style="endArrow=block;dashed=1;endFill=0;endSize=12;html=1;rounded=0;exitX=0.5;exitY=0;exitDx=0;exitDy=0;entryX=0.75;entryY=1;entryDx=0;entryDy=0;" edge="1" parent="WIyWlLk6GJQsqaUBKTNV-1" source="sYtakxzf9ieG8_uxygxY-26" target="sYtakxzf9ieG8_uxygxY-23">
          <mxGeometry width="160" relative="1" as="geometry">
            <mxPoint x="960" y="254" as="sourcePoint" />
            <mxPoint x="1170" y="174" as="targetPoint" />
          </mxGeometry>
        </mxCell>
        <mxCell id="sYtakxzf9ieG8_uxygxY-34" value="«interface»&lt;br&gt;&lt;b&gt;IMapper&lt;/b&gt;" style="html=1;whiteSpace=wrap;" vertex="1" parent="WIyWlLk6GJQsqaUBKTNV-1">
          <mxGeometry x="280" y="-70" width="110" height="50" as="geometry" />
        </mxCell>
        <mxCell id="sYtakxzf9ieG8_uxygxY-35" value="" style="endArrow=diamondThin;endFill=0;endSize=24;html=1;rounded=0;entryX=1;entryY=0.25;entryDx=0;entryDy=0;exitX=0;exitY=0.5;exitDx=0;exitDy=0;" edge="1" parent="WIyWlLk6GJQsqaUBKTNV-1" source="sYtakxzf9ieG8_uxygxY-34" target="sYtakxzf9ieG8_uxygxY-0">
          <mxGeometry width="160" relative="1" as="geometry">
            <mxPoint x="80" y="10" as="sourcePoint" />
            <mxPoint x="240" y="10" as="targetPoint" />
          </mxGeometry>
        </mxCell>
        <mxCell id="sYtakxzf9ieG8_uxygxY-37" value="«interface»&lt;br&gt;&lt;b&gt;IMapper&lt;/b&gt;" style="html=1;whiteSpace=wrap;" vertex="1" parent="WIyWlLk6GJQsqaUBKTNV-1">
          <mxGeometry x="1570" y="-80" width="110" height="50" as="geometry" />
        </mxCell>
        <mxCell id="sYtakxzf9ieG8_uxygxY-38" value="" style="endArrow=diamondThin;endFill=0;endSize=24;html=1;rounded=0;entryX=1;entryY=0.25;entryDx=0;entryDy=0;exitX=0;exitY=0.5;exitDx=0;exitDy=0;" edge="1" parent="WIyWlLk6GJQsqaUBKTNV-1" source="sYtakxzf9ieG8_uxygxY-37" target="sYtakxzf9ieG8_uxygxY-23">
          <mxGeometry width="160" relative="1" as="geometry">
            <mxPoint x="1370" as="sourcePoint" />
            <mxPoint x="1270" y="-58" as="targetPoint" />
          </mxGeometry>
        </mxCell>
      </root>
    </mxGraphModel>
  </diagram>
  <diagram id="IE3OWvT4lGIXHmrBFBvB" name="Reporting">
    <mxGraphModel dx="3431" dy="2099" grid="1" gridSize="10" guides="1" tooltips="1" connect="1" arrows="1" fold="1" page="0" pageScale="1" pageWidth="850" pageHeight="1100" math="0" shadow="0">
      <root>
        <mxCell id="0" />
        <mxCell id="1" parent="0" />
        <mxCell id="aSdOPPbS8cyPscpyISGV-2" value="&lt;p style=&quot;margin:0px;margin-top:4px;text-align:center;&quot;&gt;&lt;i&gt;&amp;lt;&amp;lt;abstract class&amp;gt;&amp;gt;&lt;/i&gt;&lt;br&gt;&lt;b&gt;ReportGenerator&lt;/b&gt;&lt;/p&gt;&lt;hr size=&quot;1&quot;&gt;&lt;p style=&quot;margin:0px;margin-left:4px;&quot;&gt;+ ExportTours(tours, withTourLogs)&lt;/p&gt;&lt;p style=&quot;margin:0px;margin-left:4px;&quot;&gt;&lt;br&gt;+ &lt;i&gt;Init&lt;/i&gt;()&lt;/p&gt;&lt;p style=&quot;margin:0px;margin-left:4px;&quot;&gt;&lt;br&gt;&lt;/p&gt;&lt;p style=&quot;margin:0px;margin-left:4px;&quot;&gt;&lt;i&gt;~ Generate(singleTourReport)&lt;/i&gt;&lt;/p&gt;&lt;p style=&quot;margin:0px;margin-left:4px;&quot;&gt;&lt;i&gt;&lt;br&gt;&lt;/i&gt;&lt;/p&gt;&lt;p style=&quot;margin:0px;margin-left:4px;&quot;&gt;&lt;i&gt;~ Generate(toutSummaryReport)&lt;/i&gt;&lt;/p&gt;&lt;p style=&quot;margin:0px;margin-left:4px;&quot;&gt;&lt;br&gt;&lt;/p&gt;" style="verticalAlign=top;align=left;overflow=fill;fontSize=12;fontFamily=Helvetica;html=1;whiteSpace=wrap;" vertex="1" parent="1">
          <mxGeometry x="-230" y="-90" width="210" height="160" as="geometry" />
        </mxCell>
        <mxCell id="aSdOPPbS8cyPscpyISGV-5" value="PdfReportGenerator" style="swimlane;fontStyle=0;childLayout=stackLayout;horizontal=1;startSize=26;fillColor=none;horizontalStack=0;resizeParent=1;resizeParentMax=0;resizeLast=0;collapsible=1;marginBottom=0;whiteSpace=wrap;html=1;" vertex="1" parent="1">
          <mxGeometry x="-230" y="180" width="210" height="78" as="geometry" />
        </mxCell>
        <mxCell id="aSdOPPbS8cyPscpyISGV-6" value="-&amp;nbsp;writer&lt;span style=&quot;background-color: initial;&quot;&gt;&amp;nbsp;: PdfWriter&lt;/span&gt;" style="text;strokeColor=none;fillColor=none;align=left;verticalAlign=top;spacingLeft=4;spacingRight=4;overflow=hidden;rotatable=0;points=[[0,0.5],[1,0.5]];portConstraint=eastwest;whiteSpace=wrap;html=1;" vertex="1" parent="aSdOPPbS8cyPscpyISGV-5">
          <mxGeometry y="26" width="210" height="26" as="geometry" />
        </mxCell>
        <mxCell id="aSdOPPbS8cyPscpyISGV-15" value="-&amp;nbsp;entryDocument&lt;span style=&quot;background-color: initial;&quot;&gt;&amp;nbsp;:&amp;nbsp;&lt;/span&gt;PdfDocument" style="text;strokeColor=none;fillColor=none;align=left;verticalAlign=top;spacingLeft=4;spacingRight=4;overflow=hidden;rotatable=0;points=[[0,0.5],[1,0.5]];portConstraint=eastwest;whiteSpace=wrap;html=1;" vertex="1" parent="aSdOPPbS8cyPscpyISGV-5">
          <mxGeometry y="52" width="210" height="26" as="geometry" />
        </mxCell>
        <mxCell id="aSdOPPbS8cyPscpyISGV-8" value="" style="endArrow=block;dashed=1;endFill=0;endSize=12;html=1;rounded=0;exitX=0.5;exitY=0;exitDx=0;exitDy=0;entryX=0.5;entryY=1;entryDx=0;entryDy=0;" edge="1" parent="1" source="aSdOPPbS8cyPscpyISGV-5" target="aSdOPPbS8cyPscpyISGV-2">
          <mxGeometry width="160" relative="1" as="geometry">
            <mxPoint x="-310" y="254" as="sourcePoint" />
            <mxPoint x="-110" y="70" as="targetPoint" />
          </mxGeometry>
        </mxCell>
        <mxCell id="aSdOPPbS8cyPscpyISGV-9" value="&lt;p style=&quot;margin:0px;margin-top:4px;text-align:center;&quot;&gt;&lt;i&gt;&amp;lt;&amp;lt;Interface&amp;gt;&amp;gt;&lt;/i&gt;&lt;br&gt;&lt;b&gt;FileHandler&lt;/b&gt;&lt;/p&gt;&lt;hr size=&quot;1&quot;&gt;&lt;p style=&quot;margin:0px;margin-left:4px;&quot;&gt;+&amp;nbsp;GenerateFile&lt;span style=&quot;background-color: initial;&quot;&gt;()&lt;/span&gt;&lt;/p&gt;&lt;p style=&quot;margin:0px;margin-left:4px;&quot;&gt;&lt;br&gt;+ GetFileStream() : Stream&lt;/p&gt;&lt;p style=&quot;margin:0px;margin-left:4px;&quot;&gt;&lt;br&gt;&lt;/p&gt;" style="verticalAlign=top;align=left;overflow=fill;fontSize=12;fontFamily=Helvetica;html=1;whiteSpace=wrap;" vertex="1" parent="1">
          <mxGeometry x="-620" y="-80" width="160" height="100" as="geometry" />
        </mxCell>
        <mxCell id="aSdOPPbS8cyPscpyISGV-11" value="FileStreamHandler" style="swimlane;fontStyle=0;childLayout=stackLayout;horizontal=1;startSize=26;fillColor=none;horizontalStack=0;resizeParent=1;resizeParentMax=0;resizeLast=0;collapsible=1;marginBottom=0;whiteSpace=wrap;html=1;" vertex="1" parent="1">
          <mxGeometry x="-610" y="100" width="140" height="20" as="geometry" />
        </mxCell>
        <mxCell id="aSdOPPbS8cyPscpyISGV-12" value="" style="endArrow=block;dashed=1;endFill=0;endSize=12;html=1;rounded=0;exitX=0.46;exitY=0.029;exitDx=0;exitDy=0;entryX=0.5;entryY=1;entryDx=0;entryDy=0;exitPerimeter=0;" edge="1" parent="1" source="aSdOPPbS8cyPscpyISGV-11" target="aSdOPPbS8cyPscpyISGV-9">
          <mxGeometry width="160" relative="1" as="geometry">
            <mxPoint x="-490" y="174" as="sourcePoint" />
            <mxPoint x="-377" y="94" as="targetPoint" />
          </mxGeometry>
        </mxCell>
        <mxCell id="aSdOPPbS8cyPscpyISGV-16" value="&lt;p style=&quot;margin:0px;margin-top:4px;text-align:center;&quot;&gt;&lt;i&gt;&amp;lt;&amp;lt;Interface&amp;gt;&amp;gt;&lt;/i&gt;&lt;br&gt;&lt;b&gt;DataProvisioner&lt;/b&gt;&lt;/p&gt;&lt;hr size=&quot;1&quot;&gt;&lt;p style=&quot;margin:0px;margin-left:4px;&quot;&gt;+&amp;nbsp;Provision&lt;span style=&quot;background-color: initial;&quot;&gt;(SingleTourReport)&lt;/span&gt;&lt;/p&gt;&lt;p style=&quot;margin:0px;margin-left:4px;&quot;&gt;&lt;br&gt;+ Provision(TourSummaryReport)&lt;/p&gt;&lt;p style=&quot;margin:0px;margin-left:4px;&quot;&gt;&lt;br&gt;&lt;/p&gt;" style="verticalAlign=top;align=left;overflow=fill;fontSize=12;fontFamily=Helvetica;html=1;whiteSpace=wrap;" vertex="1" parent="1">
          <mxGeometry x="240" y="-90" width="200" height="100" as="geometry" />
        </mxCell>
        <mxCell id="aSdOPPbS8cyPscpyISGV-17" value="EfCoreProvisioner" style="swimlane;fontStyle=0;childLayout=stackLayout;horizontal=1;startSize=26;fillColor=none;horizontalStack=0;resizeParent=1;resizeParentMax=0;resizeLast=0;collapsible=1;marginBottom=0;whiteSpace=wrap;html=1;" vertex="1" parent="1">
          <mxGeometry x="240" y="110" width="210" height="52" as="geometry" />
        </mxCell>
        <mxCell id="aSdOPPbS8cyPscpyISGV-18" value="- dbContext&lt;span style=&quot;background-color: initial;&quot;&gt;: AppDbContext&lt;/span&gt;" style="text;strokeColor=none;fillColor=none;align=left;verticalAlign=top;spacingLeft=4;spacingRight=4;overflow=hidden;rotatable=0;points=[[0,0.5],[1,0.5]];portConstraint=eastwest;whiteSpace=wrap;html=1;" vertex="1" parent="aSdOPPbS8cyPscpyISGV-17">
          <mxGeometry y="26" width="210" height="26" as="geometry" />
        </mxCell>
        <mxCell id="aSdOPPbS8cyPscpyISGV-20" value="" style="endArrow=block;dashed=1;endFill=0;endSize=12;html=1;rounded=0;exitX=0.5;exitY=0;exitDx=0;exitDy=0;entryX=0.5;entryY=1;entryDx=0;entryDy=0;" edge="1" parent="1" source="aSdOPPbS8cyPscpyISGV-17" target="aSdOPPbS8cyPscpyISGV-16">
          <mxGeometry width="160" relative="1" as="geometry">
            <mxPoint x="-115" y="190" as="sourcePoint" />
            <mxPoint x="-115" y="80" as="targetPoint" />
          </mxGeometry>
        </mxCell>
        <mxCell id="aSdOPPbS8cyPscpyISGV-21" value="&lt;p style=&quot;margin:0px;margin-top:4px;text-align:center;&quot;&gt;&lt;i&gt;&amp;lt;&amp;lt;interface&amp;gt;&amp;gt;&lt;/i&gt;&lt;br&gt;&lt;b&gt;ReportCoordinator&lt;/b&gt;&lt;/p&gt;&lt;hr size=&quot;1&quot;&gt;&lt;p style=&quot;margin:0px;margin-left:4px;&quot;&gt;+ CreateReportFromRequest(ReportRequest)&lt;/p&gt;&lt;p style=&quot;margin:0px;margin-left:4px;&quot;&gt;&lt;br&gt;+ GenerateReport()&lt;/p&gt;" style="verticalAlign=top;align=left;overflow=fill;fontSize=12;fontFamily=Helvetica;html=1;whiteSpace=wrap;" vertex="1" parent="1">
          <mxGeometry x="-250" y="-500" width="280" height="100" as="geometry" />
        </mxCell>
        <mxCell id="aSdOPPbS8cyPscpyISGV-22" value="DefaultReportCoordinator" style="swimlane;fontStyle=0;childLayout=stackLayout;horizontal=1;startSize=26;fillColor=none;horizontalStack=0;resizeParent=1;resizeParentMax=0;resizeLast=0;collapsible=1;marginBottom=0;whiteSpace=wrap;html=1;" vertex="1" parent="1">
          <mxGeometry x="130" y="-489" width="160" height="104" as="geometry" />
        </mxCell>
        <mxCell id="aSdOPPbS8cyPscpyISGV-23" value="- reportGenerationResult" style="text;strokeColor=none;fillColor=none;align=left;verticalAlign=top;spacingLeft=4;spacingRight=4;overflow=hidden;rotatable=0;points=[[0,0.5],[1,0.5]];portConstraint=eastwest;whiteSpace=wrap;html=1;" vertex="1" parent="aSdOPPbS8cyPscpyISGV-22">
          <mxGeometry y="26" width="160" height="26" as="geometry" />
        </mxCell>
        <mxCell id="aSdOPPbS8cyPscpyISGV-24" value="- reportCreationResult&lt;span style=&quot;background-color: initial;&quot;&gt;&amp;nbsp;&lt;/span&gt;" style="text;strokeColor=none;fillColor=none;align=left;verticalAlign=top;spacingLeft=4;spacingRight=4;overflow=hidden;rotatable=0;points=[[0,0.5],[1,0.5]];portConstraint=eastwest;whiteSpace=wrap;html=1;" vertex="1" parent="aSdOPPbS8cyPscpyISGV-22">
          <mxGeometry y="52" width="160" height="26" as="geometry" />
        </mxCell>
        <mxCell id="aSdOPPbS8cyPscpyISGV-26" value="- report" style="text;strokeColor=none;fillColor=none;align=left;verticalAlign=top;spacingLeft=4;spacingRight=4;overflow=hidden;rotatable=0;points=[[0,0.5],[1,0.5]];portConstraint=eastwest;whiteSpace=wrap;html=1;" vertex="1" parent="aSdOPPbS8cyPscpyISGV-22">
          <mxGeometry y="78" width="160" height="26" as="geometry" />
        </mxCell>
        <mxCell id="aSdOPPbS8cyPscpyISGV-25" value="" style="endArrow=block;dashed=1;endFill=0;endSize=12;html=1;rounded=0;exitX=0;exitY=0.5;exitDx=0;exitDy=0;entryX=1;entryY=0.5;entryDx=0;entryDy=0;" edge="1" parent="1" source="aSdOPPbS8cyPscpyISGV-23" target="aSdOPPbS8cyPscpyISGV-21">
          <mxGeometry width="160" relative="1" as="geometry">
            <mxPoint x="-300" y="-186" as="sourcePoint" />
            <mxPoint x="-100" y="-370" as="targetPoint" />
          </mxGeometry>
        </mxCell>
        <mxCell id="aSdOPPbS8cyPscpyISGV-27" value="&lt;p style=&quot;margin:0px;margin-top:4px;text-align:center;&quot;&gt;&lt;i&gt;&amp;lt;&amp;lt;abstract class&amp;gt;&amp;gt;&lt;/i&gt;&lt;br&gt;&lt;b&gt;AbstractReport&lt;/b&gt;&lt;/p&gt;&lt;hr size=&quot;1&quot;&gt;&lt;p style=&quot;margin:0px;margin-left:4px;&quot;&gt;&lt;i style=&quot;background-color: initial;&quot;&gt;+ ProvisionData(dataProvisioner)&lt;/i&gt;&lt;br&gt;&lt;/p&gt;&lt;p style=&quot;margin:0px;margin-left:4px;&quot;&gt;&lt;i&gt;&lt;br&gt;&lt;/i&gt;&lt;/p&gt;&lt;p style=&quot;margin:0px;margin-left:4px;&quot;&gt;&lt;i&gt;+ GenerateReport(reportGenerator)&lt;/i&gt;&lt;/p&gt;&lt;p style=&quot;margin:0px;margin-left:4px;&quot;&gt;&lt;br&gt;&lt;/p&gt;" style="verticalAlign=top;align=left;overflow=fill;fontSize=12;fontFamily=Helvetica;html=1;whiteSpace=wrap;" vertex="1" parent="1">
          <mxGeometry x="-1040" y="-580" width="240" height="110" as="geometry" />
        </mxCell>
        <mxCell id="aSdOPPbS8cyPscpyISGV-28" value="SingleTourReport" style="swimlane;fontStyle=1;align=center;verticalAlign=top;childLayout=stackLayout;horizontal=1;startSize=26;horizontalStack=0;resizeParent=1;resizeParentMax=0;resizeLast=0;collapsible=1;marginBottom=0;whiteSpace=wrap;html=1;" vertex="1" parent="1">
          <mxGeometry x="-1130" y="-324" width="160" height="234" as="geometry" />
        </mxCell>
        <mxCell id="aSdOPPbS8cyPscpyISGV-29" value="+ tourId: string" style="text;strokeColor=none;fillColor=none;align=left;verticalAlign=top;spacingLeft=4;spacingRight=4;overflow=hidden;rotatable=0;points=[[0,0.5],[1,0.5]];portConstraint=eastwest;whiteSpace=wrap;html=1;" vertex="1" parent="aSdOPPbS8cyPscpyISGV-28">
          <mxGeometry y="26" width="160" height="26" as="geometry" />
        </mxCell>
        <mxCell id="aSdOPPbS8cyPscpyISGV-32" value="+ tourIdName : string" style="text;strokeColor=none;fillColor=none;align=left;verticalAlign=top;spacingLeft=4;spacingRight=4;overflow=hidden;rotatable=0;points=[[0,0.5],[1,0.5]];portConstraint=eastwest;whiteSpace=wrap;html=1;" vertex="1" parent="aSdOPPbS8cyPscpyISGV-28">
          <mxGeometry y="52" width="160" height="26" as="geometry" />
        </mxCell>
        <mxCell id="aSdOPPbS8cyPscpyISGV-33" value="+ tourIdDescription : string" style="text;strokeColor=none;fillColor=none;align=left;verticalAlign=top;spacingLeft=4;spacingRight=4;overflow=hidden;rotatable=0;points=[[0,0.5],[1,0.5]];portConstraint=eastwest;whiteSpace=wrap;html=1;" vertex="1" parent="aSdOPPbS8cyPscpyISGV-28">
          <mxGeometry y="78" width="160" height="26" as="geometry" />
        </mxCell>
        <mxCell id="aSdOPPbS8cyPscpyISGV-34" value="+ startLocation : string" style="text;strokeColor=none;fillColor=none;align=left;verticalAlign=top;spacingLeft=4;spacingRight=4;overflow=hidden;rotatable=0;points=[[0,0.5],[1,0.5]];portConstraint=eastwest;whiteSpace=wrap;html=1;" vertex="1" parent="aSdOPPbS8cyPscpyISGV-28">
          <mxGeometry y="104" width="160" height="26" as="geometry" />
        </mxCell>
        <mxCell id="aSdOPPbS8cyPscpyISGV-35" value="+ endLocation : string" style="text;strokeColor=none;fillColor=none;align=left;verticalAlign=top;spacingLeft=4;spacingRight=4;overflow=hidden;rotatable=0;points=[[0,0.5],[1,0.5]];portConstraint=eastwest;whiteSpace=wrap;html=1;" vertex="1" parent="aSdOPPbS8cyPscpyISGV-28">
          <mxGeometry y="130" width="160" height="26" as="geometry" />
        </mxCell>
        <mxCell id="aSdOPPbS8cyPscpyISGV-36" value="+ distance : string" style="text;strokeColor=none;fillColor=none;align=left;verticalAlign=top;spacingLeft=4;spacingRight=4;overflow=hidden;rotatable=0;points=[[0,0.5],[1,0.5]];portConstraint=eastwest;whiteSpace=wrap;html=1;" vertex="1" parent="aSdOPPbS8cyPscpyISGV-28">
          <mxGeometry y="156" width="160" height="26" as="geometry" />
        </mxCell>
        <mxCell id="aSdOPPbS8cyPscpyISGV-37" value="+ estimatedTime : string" style="text;strokeColor=none;fillColor=none;align=left;verticalAlign=top;spacingLeft=4;spacingRight=4;overflow=hidden;rotatable=0;points=[[0,0.5],[1,0.5]];portConstraint=eastwest;whiteSpace=wrap;html=1;" vertex="1" parent="aSdOPPbS8cyPscpyISGV-28">
          <mxGeometry y="182" width="160" height="26" as="geometry" />
        </mxCell>
        <mxCell id="aSdOPPbS8cyPscpyISGV-38" value="+ tourLogs : List" style="text;strokeColor=none;fillColor=none;align=left;verticalAlign=top;spacingLeft=4;spacingRight=4;overflow=hidden;rotatable=0;points=[[0,0.5],[1,0.5]];portConstraint=eastwest;whiteSpace=wrap;html=1;" vertex="1" parent="aSdOPPbS8cyPscpyISGV-28">
          <mxGeometry y="208" width="160" height="26" as="geometry" />
        </mxCell>
        <mxCell id="aSdOPPbS8cyPscpyISGV-39" value="Extends" style="endArrow=block;endSize=16;endFill=0;html=1;rounded=0;exitX=0.5;exitY=0;exitDx=0;exitDy=0;entryX=0.5;entryY=1;entryDx=0;entryDy=0;" edge="1" parent="1" source="aSdOPPbS8cyPscpyISGV-28" target="aSdOPPbS8cyPscpyISGV-27">
          <mxGeometry width="160" relative="1" as="geometry">
            <mxPoint x="-750" y="-400" as="sourcePoint" />
            <mxPoint x="-590" y="-400" as="targetPoint" />
          </mxGeometry>
        </mxCell>
        <mxCell id="aSdOPPbS8cyPscpyISGV-40" value="TourSummaryReport" style="swimlane;fontStyle=1;align=center;verticalAlign=top;childLayout=stackLayout;horizontal=1;startSize=26;horizontalStack=0;resizeParent=1;resizeParentMax=0;resizeLast=0;collapsible=1;marginBottom=0;whiteSpace=wrap;html=1;" vertex="1" parent="1">
          <mxGeometry x="-950" y="-300" width="160" height="52" as="geometry" />
        </mxCell>
        <mxCell id="aSdOPPbS8cyPscpyISGV-41" value="+ tourSummaries: List" style="text;strokeColor=none;fillColor=none;align=left;verticalAlign=top;spacingLeft=4;spacingRight=4;overflow=hidden;rotatable=0;points=[[0,0.5],[1,0.5]];portConstraint=eastwest;whiteSpace=wrap;html=1;" vertex="1" parent="aSdOPPbS8cyPscpyISGV-40">
          <mxGeometry y="26" width="160" height="26" as="geometry" />
        </mxCell>
        <mxCell id="aSdOPPbS8cyPscpyISGV-49" value="Extends" style="endArrow=block;endSize=16;endFill=0;html=1;rounded=0;exitX=0.5;exitY=0;exitDx=0;exitDy=0;entryX=0.75;entryY=1;entryDx=0;entryDy=0;" edge="1" parent="1" source="aSdOPPbS8cyPscpyISGV-40" target="aSdOPPbS8cyPscpyISGV-27">
          <mxGeometry width="160" relative="1" as="geometry">
            <mxPoint x="-1040" y="-314" as="sourcePoint" />
            <mxPoint x="-910" y="-460" as="targetPoint" />
          </mxGeometry>
        </mxCell>
        <mxCell id="aSdOPPbS8cyPscpyISGV-50" value="" style="endArrow=block;endFill=1;html=1;edgeStyle=orthogonalEdgeStyle;align=left;verticalAlign=top;rounded=0;exitX=1;exitY=1;exitDx=0;exitDy=0;entryX=0.5;entryY=0;entryDx=0;entryDy=0;" edge="1" parent="1" source="aSdOPPbS8cyPscpyISGV-27" target="aSdOPPbS8cyPscpyISGV-2">
          <mxGeometry x="-1" relative="1" as="geometry">
            <mxPoint x="-620" y="-380" as="sourcePoint" />
            <mxPoint x="-460" y="-380" as="targetPoint" />
            <Array as="points">
              <mxPoint x="-680" y="-470" />
              <mxPoint x="-680" y="-280" />
              <mxPoint x="-170" y="-280" />
              <mxPoint x="-170" y="-90" />
            </Array>
          </mxGeometry>
        </mxCell>
        <mxCell id="aSdOPPbS8cyPscpyISGV-52" value="" style="endArrow=block;endFill=1;html=1;edgeStyle=orthogonalEdgeStyle;align=left;verticalAlign=top;rounded=0;exitX=1;exitY=0.5;exitDx=0;exitDy=0;entryX=0.5;entryY=0;entryDx=0;entryDy=0;" edge="1" parent="1" source="aSdOPPbS8cyPscpyISGV-27" target="aSdOPPbS8cyPscpyISGV-16">
          <mxGeometry x="-1" relative="1" as="geometry">
            <mxPoint x="-760" y="-519.94" as="sourcePoint" />
            <mxPoint x="-85" y="-139.94" as="targetPoint" />
            <Array as="points">
              <mxPoint x="-800" y="-520" />
              <mxPoint x="-640" y="-520" />
              <mxPoint x="-640" y="-330" />
              <mxPoint x="140" y="-330" />
              <mxPoint x="140" y="-200" />
              <mxPoint x="340" y="-200" />
            </Array>
          </mxGeometry>
        </mxCell>
        <mxCell id="aSdOPPbS8cyPscpyISGV-53" value="" style="endArrow=diamondThin;endFill=1;endSize=24;html=1;rounded=0;entryX=0;entryY=0.5;entryDx=0;entryDy=0;exitX=0.5;exitY=0;exitDx=0;exitDy=0;" edge="1" parent="1" source="aSdOPPbS8cyPscpyISGV-9" target="aSdOPPbS8cyPscpyISGV-21">
          <mxGeometry width="160" relative="1" as="geometry">
            <mxPoint x="-450" y="-470" as="sourcePoint" />
            <mxPoint x="-290" y="-470" as="targetPoint" />
          </mxGeometry>
        </mxCell>
        <mxCell id="aSdOPPbS8cyPscpyISGV-54" value="" style="endArrow=diamondThin;endFill=1;endSize=24;html=1;rounded=0;entryX=0.5;entryY=1;entryDx=0;entryDy=0;exitX=0.75;exitY=0;exitDx=0;exitDy=0;" edge="1" parent="1" source="aSdOPPbS8cyPscpyISGV-2" target="aSdOPPbS8cyPscpyISGV-21">
          <mxGeometry width="160" relative="1" as="geometry">
            <mxPoint x="-530" y="-70" as="sourcePoint" />
            <mxPoint x="-240" y="-440" as="targetPoint" />
          </mxGeometry>
        </mxCell>
        <mxCell id="aSdOPPbS8cyPscpyISGV-55" value="" style="endArrow=diamondThin;endFill=1;endSize=24;html=1;rounded=0;entryX=0.75;entryY=1;entryDx=0;entryDy=0;exitX=0;exitY=0;exitDx=0;exitDy=0;" edge="1" parent="1" source="aSdOPPbS8cyPscpyISGV-16" target="aSdOPPbS8cyPscpyISGV-21">
          <mxGeometry width="160" relative="1" as="geometry">
            <mxPoint x="-520" y="-60" as="sourcePoint" />
            <mxPoint x="-230" y="-430" as="targetPoint" />
          </mxGeometry>
        </mxCell>
      </root>
    </mxGraphModel>
  </diagram>
</mxfile>
